<svg xmlns="http://www.w3.org/2000/svg" xmlns:xlink="http://www.w3.org/1999/xlink" width="1366" zoomAndPan="magnify" viewBox="0 0 1024.5 576" height="768" preserveAspectRatio="xMidYMid meet" version="1.0"><defs><clipPath id="8f02e35038"><path d="M 224.140625 0.140625 L 799.859375 0.140625 L 799.859375 575.859375 L 224.140625 575.859375 Z M 224.140625 0.140625 " clip-rule="nonzero"/></clipPath></defs><g clip-path="url(#8f02e35038)"><path fill="#fef3ea" d="M 512 0.140625 C 353.273438 0.140625 224.140625 129.273438 224.140625 288 C 224.140625 446.726562 353.273438 575.859375 512 575.859375 C 670.726562 575.859375 799.859375 446.726562 799.859375 288 C 799.859375 129.273438 670.726562 0.140625 512 0.140625 Z M 512 537.476562 C 374.433594 537.476562 262.523438 425.566406 262.523438 288 C 262.523438 150.433594 374.433594 38.523438 512 38.523438 C 649.566406 38.523438 761.476562 150.433594 761.476562 288 C 761.476562 425.566406 649.566406 537.476562 512 537.476562 Z M 512 537.476562 " fill-opacity="1" fill-rule="nonzero"/></g><path fill="#fef3ea" d="M 612.402344 268.808594 L 531.191406 268.808594 L 531.191406 187.597656 C 531.191406 176.996094 522.597656 168.40625 512 168.40625 C 501.402344 168.40625 492.808594 176.996094 492.808594 187.597656 L 492.808594 268.808594 L 411.597656 268.808594 C 401 268.808594 392.40625 277.402344 392.40625 288 C 392.40625 298.597656 400.996094 307.191406 411.597656 307.191406 L 492.808594 307.191406 L 492.808594 388.402344 C 492.808594 399.003906 501.402344 407.59375 512 407.59375 C 522.597656 407.59375 531.191406 399.003906 531.191406 388.402344 L 531.191406 307.191406 L 612.402344 307.191406 C 623.003906 307.191406 631.59375 298.597656 631.59375 288 C 631.59375 277.402344 623.003906 268.808594 612.402344 268.808594 Z M 612.402344 268.808594 " fill-opacity="1" fill-rule="nonzero"/></svg>