<svg xmlns="http://www.w3.org/2000/svg" xmlns:xlink="http://www.w3.org/1999/xlink" width="1366" zoomAndPan="magnify" viewBox="0 0 1024.5 576" height="768" preserveAspectRatio="xMidYMid meet" version="1.0"><defs><clipPath id="b5ac2a298a"><path d="M 349 67.117188 L 675 67.117188 L 675 507 L 349 507 Z M 349 67.117188 " clip-rule="nonzero"/></clipPath></defs><g clip-path="url(#b5ac2a298a)"><path fill="#fef3ea" d="M 655.425781 506.960938 C 654.125 506.957031 652.839844 506.820312 651.566406 506.554688 C 650.296875 506.289062 649.0625 505.894531 647.871094 505.378906 C 646.679688 504.859375 645.550781 504.226562 644.488281 503.480469 C 643.425781 502.730469 642.449219 501.886719 641.558594 500.9375 L 511.996094 363.535156 L 382.433594 500.9375 C 381.78125 501.625 381.078125 502.261719 380.332031 502.847656 C 379.582031 503.429688 378.792969 503.957031 377.96875 504.421875 C 377.140625 504.886719 376.285156 505.289062 375.398438 505.628906 C 374.511719 505.96875 373.605469 506.242188 372.675781 506.445312 C 371.75 506.648438 370.8125 506.78125 369.867188 506.847656 C 368.917969 506.910156 367.972656 506.90625 367.027344 506.828125 C 366.082031 506.75 365.144531 506.605469 364.222656 506.390625 C 363.296875 506.175781 362.394531 505.890625 361.511719 505.539062 C 360.628906 505.191406 359.777344 504.777344 358.957031 504.300781 C 358.136719 503.824219 357.355469 503.289062 356.613281 502.695312 C 355.875 502.101562 355.179688 501.457031 354.535156 500.757812 C 353.890625 500.0625 353.300781 499.320312 352.765625 498.539062 C 352.230469 497.753906 351.757812 496.933594 351.347656 496.078125 C 350.933594 495.222656 350.585938 494.34375 350.304688 493.4375 C 350.023438 492.53125 349.8125 491.609375 349.667969 490.667969 C 349.523438 489.730469 349.449219 488.789062 349.445312 487.839844 L 349.445312 86.242188 C 349.445312 85.613281 349.476562 84.992188 349.539062 84.367188 C 349.597656 83.742188 349.691406 83.125 349.8125 82.511719 C 349.933594 81.894531 350.085938 81.289062 350.269531 80.691406 C 350.449219 80.089844 350.660156 79.5 350.902344 78.921875 C 351.140625 78.34375 351.410156 77.777344 351.703125 77.226562 C 352 76.675781 352.320312 76.136719 352.667969 75.617188 C 353.015625 75.097656 353.390625 74.59375 353.785156 74.109375 C 354.183594 73.625 354.605469 73.160156 355.046875 72.71875 C 355.488281 72.277344 355.953125 71.855469 356.4375 71.457031 C 356.921875 71.0625 357.421875 70.6875 357.945312 70.339844 C 358.464844 69.992188 359 69.671875 359.554688 69.375 C 360.105469 69.082031 360.671875 68.8125 361.25 68.574219 C 361.828125 68.332031 362.417969 68.121094 363.019531 67.941406 C 363.617188 67.757812 364.222656 67.605469 364.839844 67.484375 C 365.453125 67.363281 366.070312 67.269531 366.695312 67.210938 C 367.316406 67.148438 367.941406 67.117188 368.570312 67.117188 L 655.425781 67.117188 C 656.050781 67.117188 656.675781 67.148438 657.296875 67.210938 C 657.921875 67.269531 658.539062 67.363281 659.15625 67.484375 C 659.769531 67.605469 660.375 67.757812 660.976562 67.941406 C 661.574219 68.121094 662.164062 68.332031 662.742188 68.574219 C 663.320312 68.8125 663.886719 69.082031 664.4375 69.375 C 664.992188 69.671875 665.527344 69.992188 666.050781 70.339844 C 666.570312 70.6875 667.070312 71.0625 667.554688 71.457031 C 668.039062 71.855469 668.503906 72.277344 668.945312 72.71875 C 669.390625 73.160156 669.808594 73.625 670.207031 74.109375 C 670.605469 74.59375 670.976562 75.097656 671.324219 75.617188 C 671.671875 76.136719 671.996094 76.675781 672.289062 77.226562 C 672.585938 77.777344 672.851562 78.34375 673.09375 78.921875 C 673.332031 79.5 673.542969 80.089844 673.722656 80.691406 C 673.90625 81.289062 674.058594 81.894531 674.179688 82.511719 C 674.300781 83.125 674.394531 83.742188 674.457031 84.367188 C 674.515625 84.992188 674.546875 85.613281 674.546875 86.242188 L 674.546875 487.839844 C 674.546875 488.464844 674.515625 489.089844 674.457031 489.714844 C 674.394531 490.335938 674.300781 490.957031 674.179688 491.570312 C 674.058594 492.183594 673.90625 492.789062 673.722656 493.390625 C 673.542969 493.988281 673.332031 494.578125 673.09375 495.15625 C 672.851562 495.734375 672.585938 496.300781 672.289062 496.851562 C 671.996094 497.40625 671.671875 497.941406 671.324219 498.464844 C 670.976562 498.984375 670.605469 499.488281 670.207031 499.96875 C 669.808594 500.453125 669.390625 500.917969 668.945312 501.359375 C 668.503906 501.804688 668.039062 502.222656 667.554688 502.621094 C 667.070312 503.019531 666.570312 503.390625 666.050781 503.738281 C 665.527344 504.085938 664.992188 504.410156 664.4375 504.703125 C 663.886719 505 663.320312 505.265625 662.742188 505.507812 C 662.164062 505.746094 661.574219 505.957031 660.976562 506.140625 C 660.375 506.320312 659.769531 506.472656 659.15625 506.59375 C 658.539062 506.71875 657.921875 506.808594 657.296875 506.871094 C 656.675781 506.933594 656.050781 506.960938 655.425781 506.960938 Z M 511.996094 316.96875 C 513.296875 316.972656 514.582031 317.109375 515.855469 317.375 C 517.125 317.640625 518.359375 318.035156 519.550781 318.550781 C 520.742188 319.070312 521.867188 319.703125 522.933594 320.449219 C 523.996094 321.199219 524.972656 322.046875 525.863281 322.992188 L 636.300781 440.03125 L 636.300781 105.363281 L 387.691406 105.363281 L 387.691406 440.03125 L 498.132812 322.898438 C 499.027344 321.957031 500.003906 321.121094 501.070312 320.382812 C 502.136719 319.640625 503.261719 319.019531 504.457031 318.507812 C 505.648438 318 506.878906 317.613281 508.148438 317.355469 C 509.417969 317.097656 510.699219 316.96875 511.996094 316.96875 Z M 511.996094 316.96875 " fill-opacity="1" fill-rule="nonzero"/></g></svg>