<svg xmlns="http://www.w3.org/2000/svg" xmlns:xlink="http://www.w3.org/1999/xlink" zoomAndPan="magnify" preserveAspectRatio="xMidYMid meet" version="1.0" viewBox="219.75 4.52 571.34 571.34"><defs><clipPath id="728fd315ad"><path d="M 219.75 48 L 748 48 L 748 575.859375 L 219.75 575.859375 Z M 219.75 48 " clip-rule="nonzero"/></clipPath></defs><g clip-path="url(#728fd315ad)"><path fill="#fef3ea" d="M 703.179688 531.910156 L 263.699219 531.910156 L 263.699219 92.429688 L 527.386719 92.429688 L 527.386719 48.484375 L 263.699219 48.484375 C 239.4375 48.484375 219.75 68.171875 219.75 92.429688 L 219.75 531.910156 C 219.75 556.171875 239.4375 575.859375 263.699219 575.859375 L 703.179688 575.859375 C 727.4375 575.859375 747.125 556.171875 747.125 531.910156 L 747.125 268.222656 L 703.179688 268.222656 Z M 703.179688 531.910156 " fill-opacity="1" fill-rule="nonzero"/></g><path fill="#fef3ea" d="M 395.542969 400.769531 L 488.054688 400.769531 L 712.277344 176.546875 L 619.0625 83.335938 L 395.542969 306.855469 Z M 395.542969 400.769531 " fill-opacity="1" fill-rule="nonzero"/><path fill="#fef3ea" d="M 778.199219 48.484375 L 747.125 17.410156 C 729.941406 0.226562 702.125 0.226562 684.984375 17.410156 L 650.132812 52.261719 L 743.347656 145.476562 L 778.199219 110.625 C 795.382812 93.441406 795.382812 65.625 778.199219 48.484375 Z M 778.199219 48.484375 " fill-opacity="1" fill-rule="nonzero"/></svg>