<svg xmlns="http://www.w3.org/2000/svg" xmlns:xlink="http://www.w3.org/1999/xlink" zoomAndPan="magnify" preserveAspectRatio="xMidYMid meet" version="1.0" viewBox="3 206.71 1017 161.92"><defs><clipPath id="8e44b136d4"><path d="M 3 206.714844 L 175 206.714844 L 175 368.632812 L 3 368.632812 Z M 3 206.714844 " clip-rule="nonzero"/></clipPath><clipPath id="c5d3732136"><path d="M 215 206.714844 L 386 206.714844 L 386 368.632812 L 215 368.632812 Z M 215 206.714844 " clip-rule="nonzero"/></clipPath><clipPath id="75b053429d"><path d="M 426 206.714844 L 597 206.714844 L 597 368.632812 L 426 368.632812 Z M 426 206.714844 " clip-rule="nonzero"/></clipPath><clipPath id="9df72835e9"><path d="M 637 206.714844 L 808 206.714844 L 808 368.632812 L 637 368.632812 Z M 637 206.714844 " clip-rule="nonzero"/></clipPath><clipPath id="82fd89e18b"><path d="M 848 206.714844 L 1020 206.714844 L 1020 368.632812 L 848 368.632812 Z M 848 206.714844 " clip-rule="nonzero"/></clipPath></defs><g clip-path="url(#8e44b136d4)"><path fill="#fef3ea" d="M 115.378906 259.992188 L 89.078125 206.714844 L 62.800781 259.992188 L 3.996094 268.535156 L 46.550781 310.011719 L 36.5 368.546875 L 89.078125 340.921875 L 141.683594 368.546875 L 131.632812 310.011719 L 174.15625 268.535156 Z M 115.378906 259.992188 " fill-opacity="1" fill-rule="nonzero"/></g><g clip-path="url(#c5d3732136)"><path fill="#fef3ea" d="M 326.585938 259.992188 L 300.308594 206.714844 L 274.007812 259.992188 L 215.203125 268.535156 L 257.757812 310.011719 L 247.703125 368.546875 L 300.308594 340.921875 L 352.890625 368.546875 L 342.835938 310.011719 L 385.390625 268.535156 Z M 326.585938 259.992188 " fill-opacity="1" fill-rule="nonzero"/></g><g clip-path="url(#75b053429d)"><path fill="#fef3ea" d="M 537.789062 259.992188 L 511.515625 206.714844 L 485.210938 259.992188 L 426.433594 268.535156 L 468.960938 310.011719 L 458.910156 368.546875 L 511.515625 340.921875 L 564.09375 368.546875 L 554.042969 310.011719 L 596.59375 268.535156 Z M 537.789062 259.992188 " fill-opacity="1" fill-rule="nonzero"/></g><g clip-path="url(#9df72835e9)"><path fill="#fef3ea" d="M 749.023438 259.992188 L 722.71875 206.714844 L 696.417969 259.992188 L 637.640625 268.535156 L 680.167969 310.011719 L 670.140625 368.546875 L 722.71875 340.921875 L 775.300781 368.546875 L 765.273438 310.011719 L 807.800781 268.535156 Z M 749.023438 259.992188 " fill-opacity="1" fill-rule="nonzero"/></g><g clip-path="url(#82fd89e18b)"><path fill="#fef3ea" d="M 1019.03125 268.535156 L 960.226562 259.992188 L 933.925781 206.714844 L 907.648438 259.992188 L 848.84375 268.535156 L 891.398438 310.011719 L 881.347656 368.546875 L 933.925781 340.921875 L 986.53125 368.546875 L 976.480469 310.011719 Z M 1019.03125 268.535156 " fill-opacity="1" fill-rule="nonzero"/></g></svg>