<svg xmlns="http://www.w3.org/2000/svg" xmlns:xlink="http://www.w3.org/1999/xlink" zoomAndPan="magnify" preserveAspectRatio="xMidYMid meet" version="1.0" viewBox="0 204.16 1024 167.84"><defs><clipPath id="ee66f3cc8c"><path d="M 0 204.160156 L 176 204.160156 L 176 372 L 0 372 Z M 0 204.160156 " clip-rule="nonzero"/></clipPath><clipPath id="08341b68e2"><path d="M 212 204.160156 L 389 204.160156 L 389 372 L 212 372 Z M 212 204.160156 " clip-rule="nonzero"/></clipPath><clipPath id="ecb0bbd2be"><path d="M 423 204.160156 L 599 204.160156 L 599 372 L 423 372 Z M 423 204.160156 " clip-rule="nonzero"/></clipPath><clipPath id="7c5fa1e532"><path d="M 636 204.160156 L 812 204.160156 L 812 372 L 636 372 Z M 636 204.160156 " clip-rule="nonzero"/></clipPath><clipPath id="64bd9d0237"><path d="M 848 204.160156 L 1024 204.160156 L 1024 372 L 848 372 Z M 848 204.160156 " clip-rule="nonzero"/></clipPath></defs><g clip-path="url(#ee66f3cc8c)"><path fill="#fef3ea" d="M 125.953125 364.183594 C 120.21875 361.519531 114.484375 359.0625 108.339844 356.398438 C 101.582031 353.53125 94.824219 350.460938 87.65625 347.183594 C 80.488281 350.460938 73.726562 353.328125 67.175781 356.195312 C 61.03125 358.855469 55.089844 361.519531 49.355469 364.183594 L 33.175781 371.554688 L 34.40625 353.738281 C 35.226562 340.835938 36.660156 326.5 38.503906 312.367188 C 28.671875 302.535156 19.25 291.476562 9.832031 279.804688 L 0 267.515625 L 15.359375 263.214844 C 25.601562 260.347656 39.9375 257.277344 56.730469 254.410156 C 64.511719 239.867188 72.292969 226.554688 78.847656 217.136719 L 87.65625 204.4375 L 96.460938 217.136719 C 103.015625 226.554688 110.796875 239.867188 118.578125 254.410156 C 135.371094 257.277344 149.503906 260.347656 159.949219 263.214844 L 175.308594 267.515625 L 165.273438 280.007812 C 156.058594 291.683594 146.433594 302.742188 137.011719 312.570312 C 138.855469 326.703125 140.289062 341.039062 141.105469 353.941406 L 142.335938 371.757812 Z M 125.953125 364.183594 " fill-opacity="1" fill-rule="nonzero"/></g><g clip-path="url(#08341b68e2)"><path fill="#fef3ea" d="M 338.535156 364.183594 C 332.800781 361.519531 327.066406 359.0625 320.921875 356.398438 C 314.164062 353.53125 307.40625 350.460938 300.238281 347.183594 C 293.070312 350.460938 286.308594 353.328125 279.757812 356.195312 C 273.613281 358.855469 267.671875 361.519531 261.9375 364.183594 L 245.761719 371.554688 L 246.988281 353.738281 C 247.808594 340.835938 249.242188 326.5 251.085938 312.367188 C 241.664062 302.332031 232.039062 291.476562 222.824219 279.804688 L 212.992188 267.515625 L 228.351562 263.214844 C 238.59375 260.347656 252.929688 257.277344 269.722656 254.410156 C 277.503906 239.867188 285.285156 226.554688 291.839844 217.136719 L 300.644531 204.4375 L 309.453125 217.136719 C 316.007812 226.554688 323.789062 239.867188 331.570312 254.410156 C 348.363281 257.277344 362.496094 260.347656 372.941406 263.214844 L 388.300781 267.515625 L 378.265625 280.007812 C 369.050781 291.683594 359.425781 302.742188 350.003906 312.570312 C 351.847656 326.703125 353.28125 341.039062 354.097656 353.941406 L 355.328125 371.757812 Z M 338.535156 364.183594 " fill-opacity="1" fill-rule="nonzero"/></g><g clip-path="url(#ecb0bbd2be)"><path fill="#fef3ea" d="M 548.660156 364.183594 C 542.925781 361.519531 537.191406 359.0625 531.046875 356.398438 C 524.289062 353.53125 517.53125 350.460938 510.363281 347.183594 C 503.195312 350.460938 496.433594 353.328125 489.882812 356.195312 C 483.738281 358.855469 477.796875 361.519531 472.0625 364.183594 L 455.886719 371.554688 L 457.113281 353.738281 C 457.933594 340.835938 459.367188 326.5 461.210938 312.367188 C 451.789062 302.332031 442.164062 291.476562 432.949219 279.804688 L 423.117188 267.3125 L 438.476562 263.011719 C 448.71875 260.144531 463.054688 257.070312 479.847656 254.203125 C 487.628906 239.664062 495.410156 226.351562 501.964844 216.929688 L 510.769531 204.234375 L 519.578125 216.929688 C 526.132812 226.351562 533.914062 239.664062 541.695312 254.203125 C 558.488281 257.070312 572.621094 260.144531 583.066406 263.011719 L 598.425781 267.3125 L 588.390625 279.804688 C 579.175781 291.476562 569.550781 302.535156 560.128906 312.367188 C 561.972656 326.5 563.40625 340.835938 564.222656 353.738281 L 565.453125 371.554688 Z M 548.660156 364.183594 " fill-opacity="1" fill-rule="nonzero"/></g><g clip-path="url(#7c5fa1e532)"><path fill="#fef3ea" d="M 761.652344 364.183594 C 755.917969 361.519531 750.183594 359.0625 744.039062 356.398438 C 737.28125 353.53125 730.523438 350.460938 723.355469 347.183594 C 716.1875 350.460938 709.425781 353.328125 702.875 356.195312 C 696.730469 358.855469 690.789062 361.519531 685.054688 364.183594 L 668.875 371.554688 L 670.105469 353.738281 C 670.925781 340.835938 672.359375 326.5 674.203125 312.367188 C 664.78125 302.332031 655.15625 291.476562 645.9375 279.804688 L 636.109375 267.3125 L 651.46875 263.011719 C 661.707031 260.144531 676.046875 257.070312 692.839844 254.203125 C 700.621094 239.664062 708.402344 226.351562 714.957031 216.929688 L 723.761719 204.234375 L 732.570312 216.929688 C 739.125 226.351562 746.90625 239.664062 754.6875 254.203125 C 771.480469 257.070312 785.613281 260.144531 796.058594 263.011719 L 811.417969 267.3125 L 801.382812 279.804688 C 792.167969 291.476562 782.539062 302.535156 773.121094 312.367188 C 774.964844 326.5 776.398438 340.835938 777.214844 353.738281 L 778.445312 371.554688 Z M 761.652344 364.183594 " fill-opacity="1" fill-rule="nonzero"/></g><g clip-path="url(#64bd9d0237)"><path fill="#fef3ea" d="M 1024 267.722656 L 1015.398438 265.261719 C 1003.519531 261.988281 986.726562 258.300781 966.859375 255.023438 C 957.851562 237.820312 948.839844 222.460938 941.261719 211.402344 L 936.347656 204.234375 L 931.429688 211.402344 C 923.851562 222.460938 914.636719 237.820312 905.832031 255.023438 C 885.964844 258.300781 869.375 261.988281 857.292969 265.261719 L 848.691406 267.722656 L 854.222656 274.683594 C 865.074219 288.40625 876.339844 301.308594 887.601562 312.777344 C 885.351562 329.367188 883.710938 346.160156 882.6875 361.519531 L 882.074219 371.554688 L 891.289062 367.457031 C 897.84375 364.386719 904.398438 361.519531 911.359375 358.652344 C 919.550781 355.171875 927.746094 351.484375 936.550781 347.386719 C 945.355469 351.484375 953.753906 355.171875 961.742188 358.652344 C 968.703125 361.722656 975.460938 364.589844 981.8125 367.457031 L 991.027344 371.554688 L 990.414062 361.519531 C 989.390625 346.160156 987.546875 329.367188 985.496094 312.777344 C 996.761719 301.101562 1007.820312 288.40625 1018.878906 274.683594 Z M 977.304688 309.296875 L 976.691406 309.910156 L 976.894531 310.933594 C 979.148438 327.113281 980.789062 343.496094 982.015625 358.652344 C 976.488281 356.195312 970.753906 353.738281 965.019531 351.074219 C 956.210938 347.183594 946.996094 343.292969 937.371094 338.785156 L 936.550781 338.375 L 935.730469 338.785156 C 926.105469 343.292969 916.890625 347.183594 908.082031 351.074219 C 902.144531 353.53125 896.613281 355.988281 891.085938 358.652344 C 892.3125 342.882812 893.953125 326.90625 896.207031 310.933594 L 896.410156 309.910156 L 895.796875 309.089844 C 884.738281 297.828125 873.675781 285.332031 863.027344 271.816406 C 875.109375 268.539062 891.496094 265.261719 910.542969 261.988281 L 911.566406 261.78125 L 911.976562 260.960938 C 920.578125 244.375 929.382812 229.21875 936.753906 217.953125 C 944.332031 229.011719 952.933594 244.167969 961.535156 260.960938 L 961.945312 261.78125 L 962.96875 261.988281 C 982.015625 265.261719 998.402344 268.539062 1010.484375 271.816406 C 999.425781 285.539062 988.570312 298.03125 977.304688 309.296875 Z M 977.304688 309.296875 " fill-opacity="1" fill-rule="nonzero"/></g></svg>