<svg xmlns="http://www.w3.org/2000/svg" xmlns:xlink="http://www.w3.org/1999/xlink" width="1366" zoomAndPan="magnify" viewBox="0 0 1024.5 576" height="768" preserveAspectRatio="xMidYMid meet" version="1.0"><defs><clipPath id="042bb32656"><path d="M 353.097656 67.117188 L 670.808594 67.117188 L 670.808594 508.652344 L 353.097656 508.652344 Z M 353.097656 67.117188 " clip-rule="nonzero"/></clipPath></defs><g clip-path="url(#042bb32656)"><path fill="#fef3ea" d="M 670.820312 291.960938 C 670.820312 354.765625 671.175781 417.574219 670.402344 480.375 C 670.292969 489.117188 667.050781 500.769531 660.925781 505.8125 C 651.1875 513.828125 641.84375 504.308594 633.753906 497.839844 C 597.9375 469.210938 561.820312 440.941406 526.578125 411.613281 C 516.84375 403.515625 510.941406 402.609375 500.621094 411.046875 C 463.429688 441.445312 425.53125 471.007812 387.148438 499.878906 C 380.777344 504.667969 369.222656 507.96875 362.660156 505.378906 C 357.429688 503.316406 353.550781 491.230469 353.515625 483.574219 C 352.972656 355.78125 353.078125 227.984375 353.183594 100.1875 C 353.207031 76.714844 362.539062 67.273438 385.890625 67.230469 C 469.96875 67.078125 554.042969 67.085938 638.113281 67.222656 C 661.367188 67.257812 670.613281 76.660156 670.671875 100.265625 C 670.824219 164.167969 670.726562 228.0625 670.726562 291.960938 C 670.757812 291.960938 670.789062 291.960938 670.820312 291.960938 " fill-opacity="1" fill-rule="nonzero"/></g></svg>