<svg xmlns="http://www.w3.org/2000/svg" xmlns:xlink="http://www.w3.org/1999/xlink" zoomAndPan="magnify" preserveAspectRatio="xMidYMid meet" version="1.0" viewBox="0 204.16 1024 167.84"><defs><clipPath id="aa9339681f"><path d="M 0 204.160156 L 176 204.160156 L 176 372 L 0 372 Z M 0 204.160156 " clip-rule="nonzero"/></clipPath><clipPath id="3ca6069579"><path d="M 848 204.160156 L 1024 204.160156 L 1024 372 L 848 372 Z M 848 204.160156 " clip-rule="nonzero"/></clipPath><clipPath id="382a9c6e6a"><path d="M 212 204.160156 L 389 204.160156 L 389 372 L 212 372 Z M 212 204.160156 " clip-rule="nonzero"/></clipPath><clipPath id="bc88ba5e0b"><path d="M 636 204.160156 L 812 204.160156 L 812 372 L 636 372 Z M 636 204.160156 " clip-rule="nonzero"/></clipPath><clipPath id="9d47c53583"><path d="M 423 204.160156 L 599 204.160156 L 599 372 L 423 372 Z M 423 204.160156 " clip-rule="nonzero"/></clipPath></defs><g clip-path="url(#aa9339681f)"><path fill="#fef3ea" d="M 125.953125 364.183594 C 120.21875 361.519531 114.484375 359.0625 108.339844 356.398438 C 101.582031 353.53125 94.824219 350.460938 87.65625 347.183594 C 80.488281 350.460938 73.726562 353.328125 67.175781 356.195312 C 61.03125 358.855469 55.089844 361.519531 49.355469 364.183594 L 33.175781 371.554688 L 34.40625 353.738281 C 35.226562 340.835938 36.660156 326.5 38.503906 312.367188 C 28.671875 302.535156 19.25 291.476562 9.832031 279.804688 L 0 267.515625 L 15.359375 263.214844 C 25.601562 260.347656 39.9375 257.277344 56.730469 254.410156 C 64.511719 239.867188 72.292969 226.554688 78.847656 217.136719 L 87.65625 204.4375 L 96.460938 217.136719 C 103.015625 226.554688 110.796875 239.867188 118.578125 254.410156 C 135.371094 257.277344 149.503906 260.347656 159.949219 263.214844 L 175.308594 267.515625 L 165.273438 280.007812 C 156.058594 291.683594 146.433594 302.742188 137.011719 312.570312 C 138.855469 326.703125 140.289062 341.039062 141.105469 353.941406 L 142.335938 371.757812 Z M 125.953125 364.183594 " fill-opacity="1" fill-rule="nonzero"/></g><g clip-path="url(#3ca6069579)"><path fill="#fef3ea" d="M 1024 267.722656 L 1015.398438 265.261719 C 1003.519531 261.988281 986.726562 258.300781 966.859375 255.023438 C 957.851562 237.820312 948.839844 222.460938 941.261719 211.402344 L 936.347656 204.234375 L 931.429688 211.402344 C 923.851562 222.460938 914.636719 237.820312 905.832031 255.023438 C 885.964844 258.300781 869.375 261.988281 857.292969 265.261719 L 848.691406 267.722656 L 854.222656 274.683594 C 865.074219 288.40625 876.339844 301.308594 887.601562 312.777344 C 885.351562 329.367188 883.710938 346.160156 882.6875 361.519531 L 882.074219 371.554688 L 891.289062 367.457031 C 897.84375 364.386719 904.398438 361.519531 911.359375 358.652344 C 919.550781 355.171875 927.746094 351.484375 936.550781 347.386719 C 945.355469 351.484375 953.753906 355.171875 961.742188 358.652344 C 968.703125 361.722656 975.460938 364.589844 981.8125 367.457031 L 991.027344 371.554688 L 990.414062 361.519531 C 989.390625 346.160156 987.546875 329.367188 985.496094 312.777344 C 996.761719 301.101562 1007.820312 288.40625 1018.878906 274.683594 Z M 977.304688 309.296875 L 976.691406 309.910156 L 976.894531 310.933594 C 979.148438 327.113281 980.789062 343.496094 982.015625 358.652344 C 976.488281 356.195312 970.753906 353.738281 965.019531 351.074219 C 956.210938 347.183594 946.996094 343.292969 937.371094 338.785156 L 936.550781 338.375 L 935.730469 338.785156 C 926.105469 343.292969 916.890625 347.183594 908.082031 351.074219 C 902.144531 353.53125 896.613281 355.988281 891.085938 358.652344 C 892.3125 342.882812 893.953125 326.90625 896.207031 310.933594 L 896.410156 309.910156 L 895.796875 309.089844 C 884.738281 297.828125 873.675781 285.332031 863.027344 271.816406 C 875.109375 268.539062 891.496094 265.261719 910.542969 261.988281 L 911.566406 261.78125 L 911.976562 260.960938 C 920.578125 244.375 929.382812 229.21875 936.753906 217.953125 C 944.332031 229.011719 952.933594 244.167969 961.535156 260.960938 L 961.945312 261.78125 L 962.96875 261.988281 C 982.015625 265.261719 998.402344 268.539062 1010.484375 271.816406 C 999.425781 285.539062 988.570312 298.03125 977.304688 309.296875 Z M 977.304688 309.296875 " fill-opacity="1" fill-rule="nonzero"/></g><g clip-path="url(#382a9c6e6a)"><path fill="#fef3ea" d="M 388.300781 267.925781 L 379.699219 265.46875 C 367.820312 262.191406 351.027344 258.503906 331.160156 255.226562 C 322.152344 238.023438 313.140625 222.664062 305.5625 211.605469 L 300.648438 204.4375 L 295.730469 211.605469 C 288.152344 222.664062 278.9375 238.023438 270.132812 255.226562 C 250.265625 258.503906 233.675781 262.191406 221.59375 265.46875 L 212.992188 267.925781 L 218.523438 274.890625 C 229.375 288.609375 240.640625 301.511719 251.902344 312.980469 C 249.652344 329.570312 248.011719 346.363281 246.988281 361.722656 L 246.375 371.757812 L 255.589844 367.664062 C 262.144531 364.589844 268.699219 361.722656 275.660156 358.855469 C 283.851562 355.375 292.042969 351.6875 300.851562 347.59375 C 309.65625 351.6875 318.054688 355.375 326.042969 358.855469 C 333.003906 361.929688 339.761719 364.796875 346.113281 367.664062 L 355.328125 371.757812 L 354.714844 361.722656 C 353.691406 346.363281 351.847656 329.570312 349.796875 312.980469 C 361.0625 301.308594 372.121094 288.609375 383.179688 274.890625 Z M 341.605469 309.5 L 340.992188 310.113281 L 341.195312 311.136719 C 343.449219 327.316406 345.089844 343.703125 346.316406 358.855469 C 340.789062 356.398438 335.054688 353.941406 329.320312 351.277344 C 320.511719 347.386719 311.296875 343.496094 301.671875 338.992188 L 300.851562 338.582031 L 300.03125 338.992188 C 290.40625 343.496094 281.191406 347.386719 272.382812 351.277344 C 266.445312 353.738281 260.914062 356.195312 255.386719 358.855469 C 256.613281 343.085938 258.253906 327.113281 260.503906 311.136719 L 260.710938 310.113281 L 260.097656 309.296875 C 249.035156 298.03125 237.976562 285.539062 227.328125 272.023438 C 239.410156 268.746094 255.796875 265.46875 274.839844 262.191406 L 275.867188 261.988281 L 276.273438 261.167969 C 284.875 244.578125 293.683594 229.421875 301.054688 218.160156 C 308.632812 229.21875 317.234375 244.375 325.835938 261.167969 L 326.246094 261.988281 L 327.269531 262.191406 C 346.316406 265.46875 362.699219 268.746094 374.785156 272.023438 C 363.726562 285.742188 352.871094 298.234375 341.605469 309.5 Z M 341.605469 309.5 " fill-opacity="1" fill-rule="nonzero"/></g><g clip-path="url(#bc88ba5e0b)"><path fill="#fef3ea" d="M 811.417969 267.722656 L 802.816406 265.261719 C 790.9375 261.988281 774.144531 258.300781 754.277344 255.023438 C 745.265625 237.820312 736.257812 222.460938 728.679688 211.402344 L 723.761719 204.234375 L 718.847656 211.402344 C 711.269531 222.460938 702.054688 237.820312 693.25 255.023438 C 673.382812 258.300781 656.792969 261.988281 644.710938 265.261719 L 636.109375 267.722656 L 641.636719 274.683594 C 652.492188 288.40625 663.757812 301.308594 675.019531 312.777344 C 672.769531 329.367188 671.128906 346.160156 670.105469 361.519531 L 669.492188 371.554688 L 678.707031 367.457031 C 685.261719 364.386719 691.816406 361.519531 698.777344 358.652344 C 706.96875 355.171875 715.160156 351.484375 723.96875 347.386719 C 732.773438 351.484375 741.171875 355.171875 749.160156 358.652344 C 756.121094 361.722656 762.878906 364.589844 769.230469 367.457031 L 778.445312 371.554688 L 777.832031 361.519531 C 776.804688 346.160156 774.964844 329.367188 772.914062 312.777344 C 784.179688 301.101562 795.238281 288.40625 806.296875 274.683594 Z M 764.722656 309.296875 L 764.109375 309.910156 L 764.3125 310.933594 C 766.566406 327.113281 768.203125 343.496094 769.433594 358.652344 C 763.902344 356.195312 758.167969 353.738281 752.433594 351.074219 C 743.628906 347.183594 734.414062 343.292969 724.789062 338.785156 L 723.96875 338.375 L 723.148438 338.785156 C 713.523438 343.292969 704.308594 347.183594 695.5 351.074219 C 689.5625 353.53125 684.03125 355.988281 678.503906 358.652344 C 679.730469 342.882812 681.371094 326.90625 683.621094 310.933594 L 683.828125 309.910156 L 683.214844 309.089844 C 672.152344 297.828125 661.09375 285.332031 650.445312 271.816406 C 662.527344 268.539062 678.914062 265.261719 697.957031 261.988281 L 698.984375 261.78125 L 699.390625 260.960938 C 707.992188 244.375 716.800781 229.21875 724.171875 217.953125 C 731.75 229.011719 740.351562 244.167969 748.953125 260.960938 L 749.363281 261.78125 L 750.386719 261.988281 C 769.433594 265.261719 785.816406 268.539062 797.902344 271.816406 C 786.84375 285.539062 775.988281 298.03125 764.722656 309.296875 Z M 764.722656 309.296875 " fill-opacity="1" fill-rule="nonzero"/></g><g clip-path="url(#9d47c53583)"><path fill="#fef3ea" d="M 598.425781 267.722656 L 589.824219 265.261719 C 577.945312 261.988281 561.152344 258.300781 541.285156 255.023438 C 532.273438 237.820312 523.265625 222.460938 515.6875 211.402344 L 510.769531 204.234375 L 505.855469 211.402344 C 498.277344 222.460938 489.0625 237.820312 480.257812 255.023438 C 460.390625 258.300781 443.800781 261.988281 431.71875 265.261719 L 423.117188 267.722656 L 428.648438 274.683594 C 439.5 288.40625 450.765625 301.308594 462.027344 312.777344 C 459.777344 329.367188 458.136719 346.160156 457.113281 361.519531 L 456.5 371.554688 L 465.714844 367.457031 C 472.269531 364.386719 478.824219 361.519531 485.785156 358.652344 C 493.976562 355.171875 502.167969 351.484375 510.976562 347.386719 C 519.78125 351.484375 528.179688 355.171875 536.167969 358.652344 C 543.128906 361.722656 549.886719 364.589844 556.238281 367.457031 L 565.453125 371.554688 L 564.839844 361.519531 C 563.816406 346.160156 561.972656 329.367188 559.921875 312.777344 C 571.1875 301.101562 582.246094 288.40625 593.304688 274.683594 Z M 551.730469 309.296875 L 551.117188 309.910156 L 551.320312 310.933594 C 553.574219 327.113281 555.214844 343.496094 556.441406 358.652344 C 550.914062 356.195312 545.179688 353.738281 539.445312 351.074219 C 530.636719 347.183594 521.421875 343.292969 511.796875 338.785156 L 510.976562 338.375 L 510.15625 338.785156 C 500.53125 343.292969 491.316406 347.183594 482.507812 351.074219 C 476.570312 353.53125 471.039062 355.988281 465.511719 358.652344 C 466.738281 342.882812 468.378906 326.90625 470.628906 310.933594 L 470.835938 309.910156 L 470.222656 309.089844 C 459.160156 297.828125 448.101562 285.332031 437.453125 271.816406 C 449.535156 268.539062 465.921875 265.261719 484.964844 261.988281 L 485.992188 261.78125 L 486.398438 260.960938 C 495 244.375 503.808594 229.21875 511.179688 217.953125 C 518.757812 229.011719 527.359375 244.167969 535.960938 260.960938 L 536.371094 261.78125 L 537.394531 261.988281 C 556.441406 265.261719 572.824219 268.539062 584.910156 271.816406 C 573.851562 285.539062 562.996094 298.03125 551.730469 309.296875 Z M 551.730469 309.296875 " fill-opacity="1" fill-rule="nonzero"/></g></svg>