<svg xmlns="http://www.w3.org/2000/svg" xmlns:xlink="http://www.w3.org/1999/xlink" zoomAndPan="magnify" preserveAspectRatio="xMidYMid meet" version="1.0" viewBox="306.23 82.23 411.55 411.55"><defs><clipPath id="8c5fb900ca"><path d="M 306.234375 82.234375 L 717.78125 82.234375 L 717.78125 493.78125 L 306.234375 493.78125 Z M 306.234375 82.234375 " clip-rule="nonzero"/></clipPath></defs><g clip-path="url(#8c5fb900ca)"><path fill="#fef3ea" d="M 642.3125 233.125 C 683.90625 233.125 717.757812 199.28125 717.757812 157.679688 C 717.757812 116.078125 683.90625 82.234375 642.3125 82.234375 C 600.71875 82.234375 566.867188 116.078125 566.867188 157.679688 C 566.867188 164.929688 567.953125 171.921875 569.871094 178.5625 L 441.761719 242.621094 C 427.757812 223.867188 405.839844 212.550781 381.679688 212.550781 C 340.078125 212.550781 306.234375 246.394531 306.234375 287.996094 C 306.234375 329.597656 340.078125 363.441406 381.679688 363.441406 C 405.875 363.441406 427.820312 352.097656 441.78125 333.382812 L 569.871094 397.429688 C 567.953125 404.070312 566.867188 411.0625 566.867188 418.3125 C 566.867188 459.914062 600.71875 493.757812 642.3125 493.757812 C 683.90625 493.757812 717.757812 459.914062 717.757812 418.3125 C 717.757812 376.710938 683.90625 342.867188 642.3125 342.867188 C 617.769531 342.867188 595.984375 354.707031 582.199219 372.917969 L 454.054688 308.839844 C 456.015625 302.117188 457.125 295.167969 457.125 287.996094 C 457.125 280.8125 456.015625 273.851562 454.0625 267.148438 L 582.199219 203.078125 C 595.984375 221.289062 617.769531 233.125 642.3125 233.125 Z M 642.3125 370.300781 C 668.785156 370.300781 690.324219 391.84375 690.324219 418.3125 C 690.324219 444.785156 668.785156 466.324219 642.3125 466.324219 C 615.84375 466.324219 594.300781 444.785156 594.300781 418.3125 C 594.300781 391.84375 615.84375 370.300781 642.3125 370.300781 Z M 381.679688 336.007812 C 355.210938 336.007812 333.667969 314.46875 333.667969 287.996094 C 333.667969 261.527344 355.210938 239.984375 381.679688 239.984375 C 400.046875 239.984375 416.457031 250.144531 424.59375 266.644531 C 427.976562 273.292969 429.691406 280.476562 429.691406 287.996094 C 429.691406 295.519531 427.976562 302.699219 424.519531 309.496094 C 416.457031 325.847656 400.046875 336.007812 381.679688 336.007812 Z M 642.3125 109.667969 C 668.785156 109.667969 690.324219 131.210938 690.324219 157.679688 C 690.324219 184.152344 668.785156 205.691406 642.3125 205.691406 C 615.84375 205.691406 594.300781 184.152344 594.300781 157.679688 C 594.300781 131.210938 615.84375 109.667969 642.3125 109.667969 Z M 642.3125 109.667969 " fill-opacity="1" fill-rule="nonzero"/></g></svg>