<svg xmlns="http://www.w3.org/2000/svg" xmlns:xlink="http://www.w3.org/1999/xlink" width="1366" zoomAndPan="magnify" viewBox="0 0 1024.5 576" height="768" preserveAspectRatio="xMidYMid meet" version="1.0"><defs><clipPath id="4f83e712a7"><path d="M 184 0.140625 L 364 0.140625 L 364 575 L 184 575 Z M 184 0.140625 " clip-rule="nonzero"/></clipPath><clipPath id="0deba69eed"><path d="M 382 0.140625 L 844.890625 0.140625 L 844.890625 85 L 382 85 Z M 382 0.140625 " clip-rule="nonzero"/></clipPath></defs><g clip-path="url(#4f83e712a7)"><path fill="#fef3ea" d="M 349.492188 465.125 L 316.496094 465.125 L 316.496094 14.445312 C 316.496094 6.558594 310.101562 0.164062 302.214844 0.164062 L 246.21875 0.164062 C 238.332031 0.164062 231.9375 6.558594 231.9375 14.445312 L 231.9375 465.128906 L 198.945312 465.128906 C 186.671875 465.128906 180.285156 479.75 188.625 488.753906 L 263.902344 569.988281 C 269.46875 576 278.96875 576 284.535156 569.988281 L 359.808594 488.753906 C 368.144531 479.75 361.765625 465.125 349.492188 465.125 Z M 349.492188 465.125 " fill-opacity="1" fill-rule="nonzero"/></g><g clip-path="url(#0deba69eed)"><path fill="#fef3ea" d="M 382.871094 70.425781 L 382.871094 14.453125 C 382.871094 6.558594 389.269531 0.160156 397.164062 0.160156 L 829.800781 0.160156 C 837.695312 0.160156 844.089844 6.558594 844.089844 14.453125 L 844.089844 70.421875 C 844.089844 78.320312 837.691406 84.71875 829.800781 84.71875 L 397.164062 84.71875 C 389.269531 84.71875 382.871094 78.320312 382.871094 70.425781 Z M 382.871094 70.425781 " fill-opacity="1" fill-rule="nonzero"/></g><path fill="#fef3ea" d="M 382.871094 211.320312 L 382.871094 155.351562 C 382.871094 147.453125 389.269531 141.054688 397.164062 141.054688 L 714.496094 141.054688 C 722.390625 141.054688 728.785156 147.453125 728.785156 155.351562 L 728.785156 211.320312 C 728.785156 219.214844 722.386719 225.613281 714.496094 225.613281 L 397.164062 225.613281 C 389.269531 225.613281 382.871094 219.214844 382.871094 211.320312 Z M 382.871094 211.320312 " fill-opacity="1" fill-rule="nonzero"/><path fill="#fef3ea" d="M 382.871094 352.214844 L 382.871094 296.246094 C 382.871094 288.351562 389.269531 281.949219 397.164062 281.949219 L 628.015625 281.949219 C 635.910156 281.949219 642.3125 288.351562 642.3125 296.246094 L 642.3125 352.214844 C 642.3125 360.109375 635.910156 366.511719 628.015625 366.511719 L 397.164062 366.511719 C 389.269531 366.511719 382.871094 360.109375 382.871094 352.214844 Z M 382.871094 352.214844 " fill-opacity="1" fill-rule="nonzero"/><path fill="#fef3ea" d="M 382.871094 493.109375 L 382.871094 437.144531 C 382.871094 429.246094 389.269531 422.847656 397.164062 422.847656 L 563.164062 422.847656 C 571.058594 422.847656 577.457031 429.246094 577.457031 437.144531 L 577.457031 493.109375 C 577.457031 501.007812 571.058594 507.40625 563.164062 507.40625 L 397.164062 507.40625 C 389.269531 507.40625 382.871094 501.007812 382.871094 493.109375 Z M 382.871094 493.109375 " fill-opacity="1" fill-rule="nonzero"/></svg>