<svg xmlns="http://www.w3.org/2000/svg" xmlns:xlink="http://www.w3.org/1999/xlink" zoomAndPan="magnify" preserveAspectRatio="xMidYMid meet" version="1.0" viewBox="2.51 204.78 1018.76 166.43"><defs><clipPath id="ad9e21310c"><path d="M 2.507812 204.785156 L 178 204.785156 L 178 371.203125 L 2.507812 371.203125 Z M 2.507812 204.785156 " clip-rule="nonzero"/></clipPath><clipPath id="60805a9bbf"><path d="M 214 204.785156 L 389 204.785156 L 389 371.203125 L 214 371.203125 Z M 214 204.785156 " clip-rule="nonzero"/></clipPath><clipPath id="bae66f0424"><path d="M 423 204.785156 L 598 204.785156 L 598 371.203125 L 423 371.203125 Z M 423 204.785156 " clip-rule="nonzero"/></clipPath><clipPath id="7c954950f1"><path d="M 846 204.785156 L 1021.261719 204.785156 L 1021.261719 371.203125 L 846 371.203125 Z M 846 204.785156 " clip-rule="nonzero"/></clipPath><clipPath id="989f6e2153"><path d="M 635 204.785156 L 810 204.785156 L 810 371.203125 L 635 371.203125 Z M 635 204.785156 " clip-rule="nonzero"/></clipPath></defs><g clip-path="url(#ad9e21310c)"><path fill="#fef3ea" d="M 128.003906 363.675781 C 122.300781 361.027344 116.597656 358.582031 110.484375 355.9375 C 103.765625 353.082031 97.042969 350.027344 89.910156 346.769531 C 82.78125 350.027344 76.058594 352.878906 69.539062 355.730469 C 63.429688 358.378906 57.523438 361.027344 51.816406 363.675781 L 35.726562 371.011719 L 36.945312 353.289062 C 37.761719 340.453125 39.1875 326.195312 41.019531 312.136719 C 31.242188 302.359375 21.871094 291.359375 12.503906 279.75 L 2.722656 267.527344 L 18.003906 263.246094 C 28.1875 260.394531 42.449219 257.339844 59.152344 254.488281 C 66.890625 240.023438 74.632812 226.785156 81.152344 217.414062 L 89.910156 204.785156 L 98.671875 217.414062 C 105.191406 226.785156 112.929688 240.023438 120.671875 254.488281 C 137.375 257.339844 151.433594 260.394531 161.820312 263.246094 L 177.097656 267.527344 L 167.117188 279.953125 C 157.949219 291.5625 148.375 302.5625 139.003906 312.339844 C 140.839844 326.398438 142.265625 340.65625 143.078125 353.492188 L 144.300781 371.214844 Z M 128.003906 363.675781 " fill-opacity="1" fill-rule="nonzero"/></g><g clip-path="url(#60805a9bbf)"><path fill="#fef3ea" d="M 339.457031 363.675781 C 333.75 361.027344 328.046875 358.582031 321.9375 355.9375 C 315.214844 353.082031 308.492188 350.027344 301.363281 346.769531 C 294.230469 350.027344 287.507812 352.878906 280.992188 355.730469 C 274.878906 358.378906 268.972656 361.027344 263.269531 363.675781 L 247.175781 371.011719 L 248.398438 353.289062 C 249.210938 340.453125 250.636719 326.195312 252.472656 312.136719 C 243.101562 302.15625 233.527344 291.359375 224.359375 279.75 L 214.582031 267.527344 L 229.859375 263.246094 C 240.046875 260.394531 254.304688 257.339844 271.007812 254.488281 C 278.75 240.023438 286.492188 226.785156 293.011719 217.414062 L 301.769531 204.785156 L 310.527344 217.414062 C 317.046875 226.785156 324.789062 240.023438 332.53125 254.488281 C 349.234375 257.339844 363.289062 260.394531 373.679688 263.246094 L 388.957031 267.527344 L 378.976562 279.953125 C 369.808594 291.5625 360.234375 302.5625 350.863281 312.339844 C 352.695312 326.398438 354.121094 340.65625 354.9375 353.492188 L 356.160156 371.214844 Z M 339.457031 363.675781 " fill-opacity="1" fill-rule="nonzero"/></g><g clip-path="url(#bae66f0424)"><path fill="#fef3ea" d="M 548.460938 363.878906 C 542.757812 361.230469 537.054688 358.789062 530.941406 356.140625 C 524.21875 353.289062 517.496094 350.230469 510.367188 346.972656 C 503.238281 350.230469 496.515625 353.082031 489.996094 355.933594 C 483.886719 358.582031 477.976562 361.230469 472.273438 363.878906 L 456.179688 371.214844 L 457.402344 353.492188 C 458.21875 340.65625 459.644531 326.398438 461.476562 312.339844 C 452.105469 302.359375 442.53125 291.5625 433.367188 279.953125 L 423.585938 267.527344 L 438.867188 263.246094 C 449.050781 260.394531 463.3125 257.339844 480.015625 254.488281 C 487.757812 240.023438 495.496094 226.785156 502.015625 217.414062 L 510.773438 204.78125 L 519.535156 217.414062 C 526.054688 226.785156 533.792969 240.023438 541.535156 254.488281 C 558.238281 257.339844 572.296875 260.394531 582.683594 263.246094 L 597.960938 267.527344 L 587.980469 279.953125 C 578.8125 291.5625 569.238281 302.5625 559.867188 312.339844 C 561.703125 326.398438 563.128906 340.65625 563.941406 353.492188 L 565.164062 371.214844 Z M 548.460938 363.878906 " fill-opacity="1" fill-rule="nonzero"/></g><g clip-path="url(#7c954950f1)"><path fill="#fef3ea" d="M 1021.269531 267.933594 L 1012.714844 265.488281 C 1000.898438 262.230469 984.195312 258.5625 964.4375 255.304688 C 955.472656 238.191406 946.507812 222.914062 938.972656 211.914062 L 934.082031 204.785156 L 929.195312 211.914062 C 921.65625 222.914062 912.488281 238.191406 903.730469 255.304688 C 883.96875 258.5625 867.46875 262.230469 855.449219 265.488281 L 846.894531 267.933594 L 852.394531 274.859375 C 863.191406 288.507812 874.394531 301.339844 885.601562 312.75 C 883.359375 329.25 881.730469 345.953125 880.710938 361.230469 L 880.101562 371.214844 L 889.265625 367.140625 C 895.785156 364.082031 902.304688 361.230469 909.230469 358.378906 C 917.378906 354.917969 925.527344 351.25 934.285156 347.175781 C 943.046875 351.25 951.398438 354.917969 959.34375 358.378906 C 966.269531 361.4375 972.992188 364.289062 979.304688 367.140625 L 988.472656 371.214844 L 987.863281 361.230469 C 986.84375 345.953125 985.011719 329.25 982.972656 312.75 C 994.175781 301.136719 1005.175781 288.507812 1016.175781 274.859375 Z M 974.824219 309.285156 L 974.214844 309.898438 L 974.417969 310.914062 C 976.660156 327.007812 978.289062 343.304688 979.511719 358.378906 C 974.011719 355.933594 968.304688 353.492188 962.601562 350.84375 C 953.84375 346.972656 944.675781 343.101562 935.101562 338.621094 L 934.285156 338.210938 L 933.472656 338.621094 C 923.898438 343.101562 914.730469 346.972656 905.972656 350.84375 C 900.0625 353.289062 894.5625 355.730469 889.0625 358.378906 C 890.285156 342.695312 891.914062 326.804688 894.15625 310.914062 L 894.359375 309.898438 L 893.75 309.082031 C 882.75 297.878906 871.75 285.453125 861.15625 272.007812 C 873.175781 268.746094 889.472656 265.488281 908.414062 262.230469 L 909.433594 262.027344 L 909.84375 261.210938 C 918.398438 244.710938 927.15625 229.636719 934.492188 218.433594 C 942.027344 229.433594 950.582031 244.507812 959.140625 261.210938 L 959.546875 262.027344 L 960.566406 262.230469 C 979.511719 265.488281 995.808594 268.746094 1007.824219 272.007812 C 996.824219 285.65625 986.027344 298.082031 974.824219 309.285156 Z M 974.824219 309.285156 " fill-opacity="1" fill-rule="nonzero"/></g><g clip-path="url(#989f6e2153)"><path fill="#fef3ea" d="M 809.820312 267.933594 L 801.265625 265.488281 C 789.449219 262.230469 772.746094 258.5625 752.984375 255.304688 C 744.023438 238.191406 735.058594 222.914062 727.523438 211.914062 L 722.632812 204.785156 L 717.742188 211.914062 C 710.207031 222.914062 701.039062 238.191406 692.28125 255.304688 C 672.519531 258.5625 656.019531 262.230469 644 265.488281 L 635.445312 267.933594 L 640.945312 274.859375 C 651.742188 288.507812 662.945312 301.339844 674.148438 312.75 C 671.910156 329.25 670.28125 345.953125 669.261719 361.230469 L 668.648438 371.214844 L 677.816406 367.140625 C 684.335938 364.082031 690.855469 361.230469 697.78125 358.378906 C 705.929688 354.917969 714.078125 351.25 722.835938 347.175781 C 731.597656 351.25 739.949219 354.917969 747.894531 358.378906 C 754.820312 361.4375 761.542969 364.289062 767.855469 367.140625 L 777.023438 371.214844 L 776.410156 361.230469 C 775.394531 345.953125 773.558594 329.25 771.523438 312.75 C 782.726562 301.136719 793.726562 288.507812 804.726562 274.859375 Z M 763.375 309.285156 L 762.761719 309.898438 L 762.96875 310.914062 C 765.207031 327.007812 766.835938 343.304688 768.058594 358.378906 C 762.558594 355.933594 756.855469 353.492188 751.152344 350.84375 C 742.394531 346.972656 733.226562 343.101562 723.652344 338.621094 L 722.835938 338.210938 L 722.023438 338.621094 C 712.449219 343.101562 703.28125 346.972656 694.519531 350.84375 C 688.613281 353.289062 683.113281 355.730469 677.613281 358.378906 C 678.835938 342.695312 680.464844 326.804688 682.707031 310.914062 L 682.910156 309.898438 L 682.296875 309.082031 C 671.296875 297.878906 660.296875 285.453125 649.703125 272.007812 C 661.722656 268.746094 678.019531 265.488281 696.964844 262.230469 L 697.984375 262.027344 L 698.390625 261.210938 C 706.949219 244.710938 715.707031 229.636719 723.039062 218.433594 C 730.578125 229.433594 739.132812 244.507812 747.6875 261.210938 L 748.097656 262.027344 L 749.113281 262.230469 C 768.058594 265.488281 784.355469 268.746094 796.375 272.007812 C 785.375 285.65625 774.578125 298.082031 763.375 309.285156 Z M 763.375 309.285156 " fill-opacity="1" fill-rule="nonzero"/></g></svg>